<svg width="788" height="897" viewBox="0 0 788 897" fill="none" xmlns="http://www.w3.org/2000/svg">
<circle cx="394" cy="325" r="325" fill="#FFE175"/>
<path fill-rule="evenodd" clip-rule="evenodd" d="M0 311C0 288.909 17.9086 271 40 271H748C770.091 271 788 288.909 788 311V316C788 334.276 775.743 349.69 759 354.469V354.531L759.035 354.522C742.274 359.289 730 374.711 730 393V417C730 436.625 744.133 452.949 762.777 456.35C777.554 462.227 788 476.66 788 493.531V747C788 829.843 720.843 897 638 897H150C67.1573 897 0 829.843 0 747V493.531C0 476.66 10.4459 462.227 25.2232 456.35C43.8668 452.949 58 436.625 58 417V393C58 374.724 45.7426 359.31 29 354.531V354.469C12.2573 349.69 0 334.276 0 316V311Z" fill="#AFECFF"/>
<line x1="299" y1="175" x2="389" y2="175" stroke="#303030" stroke-width="30" stroke-linecap="round"/>
<line x1="419" y1="236" x2="469" y2="236" stroke="#303030" stroke-width="30" stroke-linecap="round"/>
<line x1="499" y1="175" x2="589" y2="175" stroke="#303030" stroke-width="30" stroke-linecap="round"/>
<line x1="745" y1="677" x2="745" y2="551" stroke="white" stroke-width="30" stroke-linecap="round"/>
<line x1="215" y1="655.525" x2="282.525" y2="588" stroke="#303030" stroke-width="30" stroke-linecap="round"/>
<line x1="215" y1="655.525" x2="282.525" y2="588" stroke="#303030" stroke-width="30" stroke-linecap="round"/>
<line x1="282.525" y1="726.738" x2="215" y2="659.213" stroke="#303030" stroke-width="30" stroke-linecap="round"/>
<line x1="282.525" y1="726.738" x2="215" y2="659.213" stroke="#303030" stroke-width="30" stroke-linecap="round"/>
<line x1="505.213" y1="587" x2="572.738" y2="654.525" stroke="#303030" stroke-width="30" stroke-linecap="round"/>
<line x1="505.213" y1="587" x2="572.738" y2="654.525" stroke="#303030" stroke-width="30" stroke-linecap="round"/>
<line x1="573.738" y1="660.213" x2="506.213" y2="727.738" stroke="#303030" stroke-width="30" stroke-linecap="round"/>
<line x1="573.738" y1="660.213" x2="506.213" y2="727.738" stroke="#303030" stroke-width="30" stroke-linecap="round"/>
<line x1="430.469" y1="583.203" x2="354.203" y2="731.307" stroke="#303030" stroke-width="30" stroke-linecap="round"/>
<line x1="430.469" y1="583.203" x2="354.203" y2="731.307" stroke="#303030" stroke-width="30" stroke-linecap="round"/>
<line x1="740.419" y1="500.841" x2="737.841" y2="494.581" stroke="white" stroke-width="30" stroke-linecap="round"/>
<rect x="788" y="365" width="788" height="94" rx="40" transform="rotate(-180 788 365)" fill="#7C4D4D"/>
</svg>
